<!-- <?xml version="1.0" standalone="no"?>
<!DOCTYPE svg PUBLIC "-//W3C//DTD SVG 20010904//EN"
 "http://www.w3.org/TR/2001/REC-SVG-20010904/DTD/svg10.dtd"> -->
<svg version="1.0" xmlns="http://www.w3.org/2000/svg"
 width="300.000000pt" height="400.000000pt" viewBox="0 0 814.000000 200.000000"
 preserveAspectRatio="xMidYMid meet">

<g transform="translate(0.000000,400.000000) scale(0.100000,-0.100000)"
fill="#000000" stroke="none">
<path d="M1603 3386 c-24 -30 -67 -149 -131 -366 -71 -238 -70 -210 -6 -244
30 -16 60 -38 66 -49 8 -15 7 -176 -2 -581 -6 -309 -15 -715 -18 -903 -7 -326
-8 -343 -28 -370 -12 -16 -36 -32 -57 -37 -72 -18 -236 58 -406 188 -110 85
-242 287 -287 441 -15 53 -18 116 -21 512 l-4 452 25 16 c19 12 36 15 65 10
l40 -7 -172 308 -172 308 -3 -699 c-2 -474 1 -730 8 -793 32 -262 132 -476
299 -642 209 -207 555 -360 816 -360 148 0 340 50 489 128 261 136 486 406
555 664 35 130 40 213 51 883 5 363 12 693 14 734 3 41 1 70 -4 65 -10 -11
-340 -554 -347 -571 -4 -9 4 -9 31 -2 39 11 88 -7 100 -36 12 -32 -14 -887
-29 -952 -45 -193 -195 -413 -358 -522 -113 -76 -256 -126 -323 -113 -56 11
-57 18 -65 466 -4 226 -8 635 -8 909 l-1 499 29 29 c16 16 44 32 61 36 30 6
31 8 25 42 -25 131 -149 485 -194 555 l-18 27 -20 -25z"/>
<path d="M3640 2840 c0 -219 -5 -246 -55 -268 -34 -16 -50 -15 -84 2 -27 14
-29 14 -62 -20 -28 -29 -31 -36 -19 -45 77 -51 153 -57 223 -16 33 20 52 41
71 79 25 51 26 56 26 260 l0 208 -50 0 -50 0 0 -200z"/>
<path d="M4209 3027 c-91 -34 -147 -89 -180 -178 -37 -95 -16 -205 51 -282
168 -190 477 -95 506 156 13 113 -55 235 -161 290 -50 25 -165 33 -216 14z
m193 -116 c130 -82 110 -275 -34 -336 -49 -20 -94 -19 -143 4 -76 35 -115 95
-115 177 0 107 80 184 191 184 44 0 64 -6 101 -29z"/>
<path d="M4862 2753 l3 -288 45 0 45 0 3 98 3 97 78 0 79 0 58 -100 58 -100
53 0 c29 0 53 3 53 6 0 3 -25 47 -55 99 -30 51 -55 97 -55 102 1 4 15 17 32
28 113 71 98 265 -24 324 -40 19 -62 21 -211 21 l-167 0 2 -287z m353 162 c34
-33 34 -93 1 -132 -24 -27 -27 -28 -140 -31 l-116 -4 0 96 0 96 115 0 c110 0
117 -1 140 -25z"/>
<path d="M5620 2749 l0 -292 128 5 c106 4 135 9 177 29 190 90 228 335 74 473
-69 62 -118 76 -261 76 l-118 0 0 -291z m287 167 c82 -50 114 -154 74 -241
-35 -78 -103 -115 -213 -115 l-58 0 0 188 c0 104 2 191 4 193 2 2 40 2 83 -1
52 -3 89 -11 110 -24z"/>
<path d="M7120 2757 l0 -287 50 0 50 0 2 166 3 166 165 -147 c91 -81 175 -157
188 -168 l22 -20 0 286 0 287 -45 0 -45 0 -2 -171 -3 -172 -170 153 c-93 84
-180 162 -192 173 l-23 20 0 -286z"/>
<path d="M6417 2755 c-75 -151 -137 -280 -137 -285 0 -6 21 -10 48 -10 46 0
48 1 75 50 l28 51 132 -3 132 -3 25 -47 c24 -47 26 -48 73 -48 26 0 47 4 47
10 0 13 -273 560 -280 560 -3 0 -67 -124 -143 -275z m185 -15 l37 -80 -79 0
-79 0 37 80 c20 43 39 79 42 79 3 0 22 -36 42 -79z"/>
<path d="M3418 1725 l-3 -355 63 0 63 0 -3 145 c-2 80 -1 145 1 145 2 0 72
-65 156 -145 l152 -145 84 0 84 1 -179 176 -178 175 178 179 179 179 -85 0
-85 0 -150 -150 c-82 -82 -152 -150 -155 -150 -3 0 -4 67 -2 150 l3 150 -60 0
-61 0 -2 -355z"/>
<path d="M4490 1725 l0 -355 240 0 240 0 0 60 0 60 -180 0 -180 0 0 295 0 295
-60 0 -60 0 0 -355z"/>
<path d="M5450 2078 c0 -2 -1 -162 -3 -356 l-2 -352 238 0 237 0 0 60 0 60
-177 0 -178 0 0 85 0 85 178 0 177 0 0 60 0 60 -173 0 c-96 0 -176 2 -178 4
-2 2 -3 43 -1 90 l3 86 175 0 174 0 0 60 0 60 -235 0 c-129 0 -235 -1 -235 -2z"/>
<path d="M6400 1725 l0 -355 60 0 60 0 0 355 0 355 -60 0 -60 0 0 -355z"/>
<path d="M7468 1871 l-3 -208 -228 203 c-125 112 -230 204 -232 204 -3 0 -5
-157 -5 -350 l0 -350 60 0 60 0 0 210 0 210 234 -210 c129 -115 236 -210 238
-210 2 0 3 160 3 355 l0 355 -62 0 -63 0 -2 -209z"/>
<path d="M3410 770 l0 -170 30 0 c30 0 30 1 30 55 l0 55 85 0 85 0 0 30 0 30
-85 0 -85 0 0 55 0 55 85 0 85 0 0 30 0 30 -115 0 -115 0 0 -170z"/>
<path d="M3810 771 l0 -171 30 0 30 0 -2 168 -3 167 -27 3 -28 3 0 -170z"/>
<path d="M4030 770 l0 -170 115 0 115 0 0 25 c0 25 -1 25 -85 25 l-85 0 0 145
0 145 -30 0 -30 0 0 -170z"/>
<path d="M5680 933 c0 -5 38 -82 84 -172 l84 -165 86 172 86 172 -33 0 c-31 0
-34 -4 -86 -107 l-53 -107 -55 107 c-51 99 -57 107 -84 107 -16 0 -29 -3 -29
-7z"/>
<path d="M6180 770 l0 -170 30 0 30 0 0 170 0 170 -30 0 -30 0 0 -170z"/>
<path d="M6400 770 l0 -170 85 0 c98 0 130 12 171 65 28 37 41 104 30 149 -9
36 -64 96 -103 112 -18 8 -66 14 -108 14 l-75 0 0 -170z m196 76 c28 -28 34
-42 34 -75 0 -74 -53 -121 -135 -121 l-35 0 0 115 0 115 51 0 c45 0 55 -4 85
-34z"/>
<path d="M6860 770 l0 -170 115 0 115 0 0 25 c0 24 -2 24 -87 27 l-88 3 -3 43
-3 42 91 0 91 0 -3 28 c-3 27 -3 27 -88 28 l-85 2 -3 41 -3 41 90 0 91 0 0 30
0 30 -115 0 -115 0 0 -170z"/>
<path d="M7355 926 c-91 -41 -130 -148 -85 -236 30 -58 82 -90 148 -90 62 0
98 16 139 63 72 82 41 211 -61 258 -48 22 -99 24 -141 5z m126 -63 c65 -38 75
-130 19 -177 -81 -68 -190 -18 -190 87 0 83 97 134 171 90z"/>
<path d="M4420 765 l0 -165 30 0 30 0 0 95 c0 52 3 95 7 95 4 0 31 -23 60 -52
l53 -52 55 54 55 54 0 -97 0 -97 30 0 30 0 0 165 c0 91 -2 165 -4 165 -2 0
-42 -36 -88 -79 l-83 -80 -80 80 c-44 43 -84 79 -88 79 -4 0 -7 -74 -7 -165z"/>
<path d="M5182 877 c-24 -25 -28 -66 -11 -98 8 -16 5 -26 -20 -55 -38 -43 -40
-82 -7 -121 20 -24 32 -28 71 -27 31 1 56 8 76 23 l31 23 14 -21 c11 -15 26
-21 52 -21 l36 0 -38 39 -38 39 21 40 c26 52 26 59 0 57 -12 -1 -28 -13 -36
-28 -16 -32 -24 -33 -48 -7 -18 20 -18 21 8 48 33 34 36 83 7 112 -29 29 -90
27 -118 -3z m92 -39 c8 -14 6 -22 -11 -39 -22 -23 -37 -20 -53 11 -7 14 -6 23
6 35 20 19 43 16 58 -7z m-22 -145 c15 -15 28 -32 28 -40 0 -28 -74 -45 -98
-21 -19 19 -14 55 10 72 29 20 27 21 60 -11z"/>
</g>
</svg>
