<svg version="1.0" xmlns="http://www.w3.org/2000/svg"
 width="100pt" height="130.000000pt" viewBox="0 0 20 20"
 preserveAspectRatio="xMidYMid meet">

<g transform="translate(0.000000,179.000000) scale(0.100000,-0.100000)"
fill="#000000" stroke="none">
<path d="M742 1498 c-11 -29 -30 -88 -42 -132 l-22 -78 29 -27 30 -26 -10
-405 c-5 -252 -13 -410 -19 -417 -49 -59 -245 71 -311 206 l-32 66 -3 208 c-4
221 0 244 41 231 18 -6 17 -1 -10 47 -17 30 -50 88 -73 129 -23 41 -46 80 -51
85 -7 7 -9 -108 -7 -340 4 -326 6 -354 26 -415 38 -117 108 -203 215 -268 210
-127 439 -102 608 67 80 80 125 166 138 266 8 59 23 695 16 695 -2 0 -129
-211 -153 -254 -3 -5 1 -6 9 -4 8 3 22 1 32 -4 14 -7 17 -23 16 -106 0 -53 -4
-156 -8 -227 -7 -121 -10 -135 -41 -193 -54 -102 -133 -169 -226 -194 -77 -21
-74 -36 -74 439 l0 413 26 10 c17 7 24 15 20 28 -3 9 -10 37 -16 62 -16 62
-70 190 -80 190 -5 0 -17 -24 -28 -52z"/>
</g>
</svg>
